# xmcd CD database file
#
# Track frame offsets:
#	150
#	26912
#	50422
#	78047
#	94780
#	104912
#
# Disc length: 2805 seconds
#
# Revision: 4
# Processed by: cddbd v1.5.1PL0 Copyright (c) Steve Scherf et al.
# Submitted via: CDex 1.51
#
DISCID=470af306
DTITLE=ピンク・フロイド - おせっかい
DYEAR=1971
DGENRE=Progressive Rock
TTITLE0=吹けよ風、呼べよ嵐
TTITLE1=ピロウ・オヴ・ウインズ
TTITLE2=フィアレス
TTITLE3=サン・トロペ
TTITLE4=シーマスのブルース
TTITLE5=エコーズ
EXTD=EMI - Capitol\nC2 46034\nUPC: 7777-46034-2 YEAR: 1971
EXTT0=
EXTT1=
EXTT2=
EXTT3=
EXTT4=
EXTT5=
PLAYORDER=
